<?xml version="1.0" encoding="utf-8"?>
<!-- Generator: Adobe Illustrator 27.3.0, SVG Export Plug-In . SVG Version: 6.00 Build 0)  -->
<svg version="1.1" id="Ebene_1" xmlns="http://www.w3.org/2000/svg" xmlns:xlink="http://www.w3.org/1999/xlink" x="0px" y="0px"
	 viewBox="0 0 150 150" enable-background="new 0 0 150 150" xml:space="preserve" stroke-opacity="0">
<path fill="#E6E6E6" d="M150,74.88c0,41.42-33.58,75-75,75s-75-33.58-75-75s33.58-75,75-75S150,33.46,150,74.88z"/>
<path fill="#B3B3B3" d="M75.13,137.07c-2.77,0-5.56-0.18-8.36-0.56c-16.46-2.2-31.08-10.67-41.17-23.87S11.17,83.11,13.37,66.65
	C17.9,32.66,49.24,8.7,83.23,13.25c16.46,2.2,31.08,10.68,41.17,23.87c10.09,13.2,14.43,29.53,12.23,45.99s-10.67,31.08-23.87,41.17
	C101.81,132.65,88.69,137.07,75.13,137.07L75.13,137.07z M74.96,13.69c-30.17,0-56.5,22.38-60.6,53.09
	c-2.16,16.2,2.11,32.27,12.04,45.25c9.92,12.98,24.31,21.33,40.51,23.49s32.27-2.11,45.25-12.04s21.33-24.31,23.49-40.51l0,0
	c2.16-16.2-2.11-32.27-12.04-45.25C113.69,24.74,99.3,16.4,83.1,14.23C80.37,13.86,77.65,13.69,74.96,13.69z"/>
<path fill="#496A9A" d="M75,144.57c-17.85,0-35.71-6.8-49.3-20.39C-1.48,97-1.48,52.76,25.7,25.58s71.42-27.19,98.6,0
	s27.18,71.42,0,98.6C110.71,137.77,92.85,144.57,75,144.57z M75,7.19c-17.34,0-34.68,6.6-47.89,19.8c-26.4,26.41-26.4,69.37,0,95.78
	c13.2,13.2,30.55,19.8,47.89,19.8s34.68-6.6,47.89-19.8c26.41-26.41,26.41-69.37,0-95.77C109.69,13.8,92.34,7.2,75,7.2V7.19z"/>
<g>
	<rect x="4.55" y="59.14" fill="#FFFFFF" width="140.89" height="31.71"/>
	<g>
		<polygon points="73.19,71.31 78.74,71.31 78.74,69.88 73.19,69.88 73.19,65.84 79.52,65.84 79.52,64.41 71.58,64.41 71.58,77.14 
			73.19,77.14 		"/>
		<rect x="89.16" y="64.41" fill="#1D1D1B" width="1.44" height="12.72"/>
		<path fill="#1D1D1B" d="M106.66,76.55c0.65-0.53,1.08-1.31,1.27-2.33h-1.42c-0.12,0.61-0.38,1.06-0.78,1.35
			c-0.4,0.3-0.89,0.45-1.49,0.45c-0.47,0-0.89-0.08-1.24-0.25s-0.64-0.39-0.86-0.67c-0.23-0.28-0.39-0.6-0.49-0.96
			s-0.15-0.75-0.14-1.15h6.55c0.02-0.56-0.03-1.15-0.14-1.76c-0.12-0.62-0.33-1.19-0.64-1.71s-0.72-0.95-1.24-1.29
			c-0.51-0.34-1.16-0.51-1.94-0.51c-0.6,0-1.15,0.12-1.65,0.36s-0.94,0.57-1.3,1c-0.37,0.43-0.65,0.94-0.85,1.52
			c-0.2,0.59-0.3,1.23-0.3,1.92c0.02,0.7,0.12,1.35,0.3,1.94c0.17,0.59,0.44,1.1,0.79,1.53s0.78,0.76,1.29,1.01
			c0.51,0.24,1.12,0.37,1.82,0.37c0.99,0,1.82-0.27,2.47-0.8L106.66,76.55z M101.73,70.64c0.12-0.31,0.29-0.59,0.51-0.83
			c0.21-0.24,0.47-0.42,0.77-0.56c0.3-0.14,0.63-0.2,1.01-0.2c0.35,0,0.68,0.07,0.98,0.2c0.3,0.14,0.57,0.32,0.79,0.55
			s0.39,0.51,0.52,0.83s0.21,0.66,0.23,1.02h-5.03C101.53,71.29,101.61,70.96,101.73,70.64z"/>
		<polygon fill="#1D1D1B" points="96.4,71.27 99.87,67.92 97.94,67.92 93.94,71.95 93.94,64.41 92.5,64.41 92.5,77.14 93.94,77.14 
			93.94,73.64 95.3,72.33 98.29,77.14 100.12,77.14 		"/>
		<path fill="#1D1D1B" d="M88,77.14v-1.21c-0.16,0.06-0.3,0.09-0.44,0.09c-0.23,0-0.36-0.08-0.4-0.25s-0.06-0.43-0.06-0.78v-4.74
			c0-0.53-0.1-0.97-0.29-1.3s-0.45-0.59-0.76-0.78c-0.32-0.18-0.67-0.31-1.06-0.37c-0.39-0.06-0.78-0.09-1.18-0.09
			c-0.49,0-0.95,0.05-1.39,0.16s-0.83,0.28-1.17,0.53c-0.34,0.24-0.61,0.56-0.81,0.95s-0.32,0.87-0.34,1.44h1.44
			c0.03-0.68,0.25-1.14,0.66-1.38s0.91-0.37,1.52-0.37c0.23,0,0.45,0.02,0.69,0.05c0.23,0.04,0.44,0.11,0.63,0.21
			c0.19,0.11,0.34,0.26,0.45,0.46s0.17,0.47,0.17,0.8c0,0.29-0.08,0.5-0.24,0.65c-0.16,0.15-0.37,0.26-0.63,0.34
			c-0.27,0.08-0.58,0.14-0.93,0.18c-0.36,0.04-0.73,0.1-1.13,0.19c-0.37,0.07-0.74,0.16-1.09,0.28c-0.36,0.11-0.67,0.27-0.95,0.47
			c-0.28,0.2-0.5,0.47-0.67,0.8s-0.25,0.76-0.25,1.28c0,0.46,0.08,0.86,0.23,1.18c0.15,0.33,0.36,0.59,0.62,0.8
			c0.26,0.21,0.57,0.36,0.92,0.45c0.36,0.09,0.73,0.14,1.13,0.14c0.61,0,1.18-0.11,1.7-0.34c0.52-0.23,0.98-0.59,1.38-1.09
			c0,0.5,0.11,0.86,0.33,1.09c0.22,0.23,0.52,0.34,0.89,0.34c0.23,0,0.42-0.02,0.59-0.06s0.32-0.09,0.44-0.15L88,77.14z
			 M85.66,73.93c0,0.21-0.05,0.44-0.15,0.69c-0.1,0.24-0.26,0.47-0.47,0.68s-0.49,0.38-0.83,0.52c-0.34,0.14-0.74,0.2-1.22,0.2
			c-0.23,0-0.44-0.02-0.64-0.07s-0.38-0.12-0.53-0.23s-0.28-0.25-0.37-0.42c-0.1-0.17-0.14-0.38-0.14-0.63
			c0-0.29,0.05-0.52,0.14-0.71c0.1-0.19,0.22-0.35,0.38-0.47c0.16-0.12,0.34-0.22,0.56-0.29c0.21-0.07,0.44-0.13,0.68-0.18
			s0.48-0.09,0.74-0.12c0.25-0.03,0.49-0.07,0.72-0.11s0.44-0.09,0.64-0.15c0.2-0.06,0.37-0.14,0.51-0.23v1.53L85.66,73.93z"/>
		<path fill="#496A9A" d="M68.66,73.51c0.09-0.22,0.17-0.44,0.23-0.67c0.06-0.23,0.11-0.47,0.15-0.74s0.08-0.59,0.11-0.97h-1.37
			c-0.03,0.68-0.16,1.34-0.39,1.98l-2.18-2.8c0.29-0.18,0.58-0.38,0.85-0.6s0.51-0.47,0.73-0.74c0.21-0.27,0.38-0.57,0.51-0.9
			c0.12-0.33,0.19-0.68,0.19-1.06c0-0.43-0.08-0.8-0.25-1.13c-0.16-0.33-0.38-0.6-0.65-0.82c-0.27-0.22-0.58-0.38-0.94-0.49
			s-0.72-0.16-1.09-0.16c-0.44,0-0.83,0.07-1.17,0.21c-0.34,0.14-0.62,0.34-0.85,0.58c-0.23,0.24-0.41,0.52-0.52,0.84
			c-0.12,0.31-0.18,0.64-0.18,0.99c0,0.32,0.04,0.61,0.11,0.87s0.17,0.51,0.3,0.73c0.13,0.23,0.27,0.45,0.43,0.68
			s0.32,0.46,0.49,0.71c-0.38,0.21-0.75,0.44-1.09,0.69c-0.34,0.24-0.64,0.52-0.9,0.82c-0.25,0.3-0.46,0.64-0.61,1.02
			s-0.23,0.82-0.23,1.32c0,0.26,0.04,0.59,0.13,0.98c0.08,0.39,0.26,0.77,0.53,1.14s0.65,0.69,1.15,0.95c0.5,0.27,1.15,0.4,1.96,0.4
			c0.33,0,0.66-0.04,0.99-0.12c0.33-0.08,0.65-0.19,0.95-0.34c0.3-0.15,0.58-0.34,0.83-0.56c0.25-0.23,0.47-0.49,0.65-0.78
			l1.29,1.59h1.88l-2.35-2.87c0.12-0.29,0.23-0.54,0.32-0.76L68.66,73.51z M63.7,66.08c0.29-0.22,0.61-0.33,0.95-0.33
			c0.43,0,0.77,0.13,1.02,0.4c0.25,0.27,0.37,0.59,0.37,0.95c0,0.27-0.05,0.52-0.15,0.74s-0.23,0.42-0.39,0.6
			c-0.16,0.18-0.33,0.34-0.52,0.48c-0.19,0.14-0.37,0.27-0.54,0.39c-0.14-0.18-0.27-0.36-0.41-0.53c-0.14-0.18-0.26-0.36-0.37-0.54
			s-0.21-0.37-0.28-0.56c-0.07-0.19-0.11-0.38-0.11-0.57c0-0.46,0.15-0.8,0.44-1.02L63.7,66.08z M65.64,75.6
			c-0.43,0.27-0.93,0.41-1.48,0.41c-0.29,0-0.58-0.05-0.85-0.16c-0.28-0.11-0.52-0.25-0.74-0.44c-0.21-0.18-0.39-0.41-0.52-0.68
			s-0.19-0.56-0.19-0.88c0-0.38,0.06-0.71,0.17-0.99c0.11-0.28,0.26-0.53,0.46-0.76c0.19-0.23,0.41-0.43,0.67-0.61
			c0.25-0.18,0.52-0.35,0.8-0.52l2.78,3.51c-0.29,0.46-0.66,0.83-1.09,1.1L65.64,75.6z"/>
		<rect x="20.73" y="64.41" fill="#1D1D1B" width="1.44" height="1.85"/>
		<rect x="20.73" y="67.92" fill="#1D1D1B" width="1.44" height="9.21"/>
		<polygon fill="#1D1D1B" points="19.65,75.71 11.95,75.71 19.45,65.84 19.45,64.41 10.62,64.41 10.62,65.84 17.56,65.84 
			10.04,75.71 10.04,77.14 19.65,77.14 		"/>
		<path fill="#1D1D1B" d="M57.38,73.04c0-0.58,0.06-1.1,0.17-1.57c0.11-0.46,0.29-0.86,0.54-1.18s0.58-0.56,0.98-0.73
			c0.41-0.17,0.9-0.25,1.47-0.25v-1.6c-0.78-0.02-1.42,0.14-1.93,0.5c-0.51,0.36-0.94,0.91-1.29,1.66h-0.03v-1.94h-1.35v9.21h1.44
			V73.04z"/>
		<path fill="#1D1D1B" d="M54.55,74.21h-1.42c-0.12,0.61-0.38,1.06-0.78,1.35c-0.4,0.3-0.89,0.45-1.49,0.45
			c-0.47,0-0.89-0.08-1.24-0.25c-0.35-0.17-0.64-0.39-0.86-0.67c-0.23-0.28-0.39-0.6-0.49-0.96c-0.1-0.36-0.15-0.75-0.14-1.15h6.55
			c0.02-0.56-0.03-1.15-0.14-1.76c-0.12-0.62-0.33-1.19-0.64-1.71c-0.31-0.52-0.72-0.95-1.24-1.29c-0.51-0.34-1.16-0.51-1.94-0.51
			c-0.6,0-1.15,0.12-1.65,0.36s-0.94,0.57-1.3,1c-0.37,0.43-0.65,0.94-0.85,1.52c-0.2,0.59-0.3,1.23-0.3,1.92
			c0.02,0.7,0.12,1.35,0.3,1.94c0.17,0.59,0.44,1.1,0.79,1.53c0.35,0.43,0.78,0.76,1.29,1.01c0.51,0.24,1.12,0.37,1.82,0.37
			c0.99,0,1.82-0.27,2.47-0.8c0.65-0.53,1.08-1.31,1.27-2.33L54.55,74.21z M48.35,70.64c0.12-0.31,0.29-0.59,0.51-0.83
			c0.21-0.24,0.47-0.42,0.77-0.56s0.63-0.2,1.01-0.2c0.35,0,0.68,0.07,0.98,0.2c0.3,0.14,0.57,0.32,0.79,0.55s0.39,0.51,0.52,0.83
			s0.21,0.66,0.23,1.02h-5.03C48.15,71.29,48.23,70.96,48.35,70.64z"/>
		<path fill="#1D1D1B" d="M44.44,68.33c-0.25-0.21-0.56-0.37-0.91-0.47c-0.36-0.1-0.75-0.15-1.19-0.15c-0.56,0-1.09,0.14-1.57,0.41
			c-0.49,0.27-0.87,0.66-1.17,1.16c-0.18-0.57-0.49-0.97-0.93-1.21s-0.93-0.36-1.47-0.36c-1.23,0-2.17,0.52-2.83,1.57h-0.03v-1.35
			h-1.35v9.21h1.44V71.4c0-0.18,0.04-0.4,0.13-0.67c0.08-0.27,0.22-0.53,0.41-0.78s0.43-0.46,0.72-0.64s0.65-0.27,1.08-0.27
			c0.32,0,0.58,0.05,0.8,0.15c0.21,0.1,0.38,0.24,0.51,0.43c0.12,0.18,0.21,0.4,0.26,0.65s0.08,0.52,0.08,0.82v6.04h1.44v-5.74
			c0-0.71,0.21-1.28,0.62-1.71s0.97-0.64,1.67-0.64c0.35,0,0.63,0.05,0.85,0.16c0.22,0.11,0.39,0.25,0.52,0.44
			c0.12,0.18,0.21,0.4,0.25,0.65s0.07,0.52,0.07,0.8v6.04h1.44v-6.75c0-0.47-0.07-0.88-0.21-1.22c-0.14-0.34-0.34-0.61-0.59-0.83
			L44.44,68.33z"/>
		<path fill="#1D1D1B" d="M25.99,76.99c0.51,0.24,1.12,0.37,1.82,0.37c0.99,0,1.82-0.27,2.47-0.8c0.65-0.53,1.08-1.31,1.27-2.33
			h-1.42c-0.12,0.61-0.38,1.06-0.78,1.35c-0.4,0.3-0.89,0.45-1.49,0.45c-0.47,0-0.89-0.08-1.24-0.25s-0.64-0.39-0.86-0.67
			c-0.23-0.28-0.39-0.6-0.49-0.96S25.12,73.4,25.13,73h6.55c0.02-0.56-0.03-1.15-0.14-1.76c-0.12-0.62-0.33-1.19-0.64-1.71
			s-0.72-0.95-1.24-1.29c-0.51-0.34-1.16-0.51-1.94-0.51c-0.6,0-1.15,0.12-1.65,0.36s-0.94,0.57-1.3,1
			c-0.37,0.43-0.65,0.94-0.85,1.52s-0.3,1.23-0.3,1.92c0.02,0.7,0.12,1.35,0.3,1.94c0.17,0.59,0.44,1.1,0.79,1.53
			s0.78,0.76,1.29,1.01L25.99,76.99z M25.36,70.65c0.12-0.31,0.29-0.59,0.51-0.83c0.21-0.24,0.47-0.42,0.77-0.56
			c0.3-0.14,0.63-0.2,1.01-0.2c0.35,0,0.68,0.07,0.98,0.2c0.3,0.14,0.57,0.32,0.79,0.55c0.22,0.23,0.4,0.51,0.52,0.83
			c0.13,0.32,0.21,0.66,0.23,1.02h-5.03C25.16,71.3,25.24,70.97,25.36,70.65z"/>
		<polygon fill="#1D1D1B" points="41.62,83.16 41.62,82.81 39.21,82.81 39.21,83.26 40.96,83.26 39.09,85.55 39.09,85.95 
			41.71,85.95 41.71,85.49 39.72,85.49 		"/>
		<path fill="#1D1D1B" d="M44.87,83.93c-0.04-0.21-0.12-0.4-0.23-0.58s-0.26-0.32-0.44-0.44s-0.41-0.17-0.69-0.17
			c-0.21,0-0.41,0.04-0.59,0.12s-0.33,0.19-0.46,0.34c-0.13,0.15-0.23,0.32-0.3,0.52s-0.11,0.42-0.11,0.65
			c0,0.24,0.04,0.46,0.11,0.66c0.06,0.2,0.16,0.38,0.28,0.52c0.12,0.15,0.28,0.26,0.46,0.34c0.18,0.08,0.4,0.12,0.65,0.12
			c0.35,0,0.64-0.09,0.88-0.27c0.23-0.18,0.38-0.45,0.45-0.8h-0.5c-0.04,0.21-0.14,0.36-0.28,0.46s-0.32,0.15-0.53,0.15
			c-0.17,0-0.31-0.03-0.44-0.08c-0.12-0.06-0.23-0.13-0.31-0.23c-0.08-0.09-0.14-0.2-0.17-0.33c-0.04-0.12-0.05-0.25-0.05-0.39h2.33
			c0-0.19,0-0.39-0.05-0.6L44.87,83.93z M42.6,84.08c0-0.12,0.03-0.24,0.08-0.34c0.04-0.11,0.1-0.2,0.18-0.28s0.17-0.14,0.27-0.19
			c0.11-0.05,0.23-0.07,0.36-0.07c0.12,0,0.24,0.02,0.35,0.07c0.11,0.05,0.2,0.11,0.28,0.19c0.08,0.08,0.14,0.17,0.19,0.28
			s0.07,0.22,0.08,0.35h-1.78L42.6,84.08z"/>
		<path fill="#1D1D1B" d="M38.35,84.4c-0.09-0.07-0.2-0.12-0.32-0.16s-0.25-0.07-0.38-0.1c-0.12-0.03-0.24-0.06-0.36-0.08
			c-0.12-0.03-0.23-0.06-0.32-0.1c-0.1-0.04-0.18-0.09-0.24-0.14c-0.06-0.06-0.09-0.13-0.09-0.22c0-0.08,0.02-0.14,0.06-0.19
			s0.09-0.09,0.16-0.12c0.06-0.03,0.14-0.05,0.21-0.06c0.08-0.01,0.16-0.02,0.23-0.02c0.08,0,0.17,0,0.25,0.03
			c0.08,0.02,0.16,0.05,0.22,0.09c0.07,0.04,0.12,0.09,0.17,0.16c0.05,0.07,0.07,0.15,0.08,0.25h0.51
			c-0.01-0.19-0.05-0.35-0.12-0.48s-0.16-0.23-0.27-0.3s-0.25-0.13-0.4-0.16c-0.15-0.03-0.31-0.05-0.48-0.05
			c-0.14,0-0.27,0.02-0.41,0.05c-0.14,0.03-0.26,0.09-0.37,0.16c-0.11,0.07-0.2,0.16-0.27,0.28c-0.07,0.11-0.11,0.25-0.11,0.41
			c0,0.15,0.03,0.28,0.09,0.38s0.14,0.18,0.23,0.25c0.1,0.06,0.2,0.12,0.32,0.16s0.24,0.08,0.37,0.1s0.25,0.06,0.38,0.08
			c0.12,0.03,0.23,0.06,0.32,0.1s0.17,0.09,0.23,0.15c0.06,0.06,0.09,0.14,0.09,0.25s-0.02,0.18-0.07,0.24s-0.11,0.11-0.18,0.14
			s-0.16,0.05-0.24,0.07c-0.09,0.01-0.17,0.02-0.25,0.02c-0.1,0-0.21-0.01-0.3-0.03c-0.1-0.02-0.19-0.05-0.26-0.1
			c-0.08-0.05-0.14-0.11-0.19-0.19s-0.07-0.17-0.08-0.29h-0.51c0,0.19,0.05,0.36,0.12,0.49c0.07,0.14,0.17,0.24,0.29,0.33
			c0.12,0.08,0.26,0.14,0.41,0.18s0.32,0.06,0.5,0.06c0.16,0,0.31-0.02,0.47-0.05c0.16-0.03,0.3-0.09,0.43-0.16s0.23-0.18,0.31-0.31
			s0.12-0.28,0.12-0.47c0-0.15-0.03-0.28-0.09-0.38s-0.13-0.18-0.23-0.25L38.35,84.4z"/>
		<path fill="#1D1D1B" d="M47.91,83.06c-0.08-0.1-0.19-0.18-0.33-0.24c-0.14-0.06-0.31-0.09-0.51-0.09c-0.22,0-0.42,0.05-0.59,0.14
			c-0.17,0.09-0.31,0.24-0.42,0.43h-0.01v-0.5h-0.48v3.14h0.51v-1.77c0-0.14,0.02-0.27,0.06-0.39s0.1-0.22,0.17-0.31
			c0.08-0.09,0.17-0.16,0.29-0.21c0.11-0.05,0.25-0.07,0.41-0.07c0.2,0,0.35,0.06,0.46,0.17s0.17,0.27,0.17,0.46v2.12h0.51v-2.06
			c0-0.17-0.02-0.32-0.05-0.46s-0.09-0.26-0.18-0.36L47.91,83.06z"/>
		<rect x="24.45" y="81.61" fill="#1D1D1B" width="0.51" height="4.33"/>
		<path fill="#1D1D1B" d="M16.16,85.36c-0.14,0.14-0.34,0.2-0.59,0.2c-0.16,0-0.3-0.03-0.42-0.1c-0.11-0.06-0.21-0.15-0.28-0.26
			s-0.13-0.23-0.16-0.37s-0.05-0.28-0.05-0.42c0-0.16,0.02-0.31,0.05-0.46s0.09-0.28,0.16-0.39s0.17-0.2,0.3-0.27
			c0.12-0.07,0.28-0.1,0.46-0.1c0.21,0,0.38,0.05,0.51,0.16s0.22,0.26,0.26,0.46h0.53c-0.02-0.19-0.07-0.35-0.14-0.48
			c-0.07-0.14-0.17-0.25-0.29-0.34s-0.26-0.15-0.41-0.2c-0.15-0.04-0.32-0.06-0.5-0.06c-0.25,0-0.46,0.04-0.65,0.13
			c-0.18,0.09-0.33,0.21-0.46,0.36c-0.12,0.15-0.21,0.33-0.27,0.53s-0.09,0.42-0.09,0.66s0.03,0.45,0.09,0.65
			c0.06,0.2,0.15,0.37,0.28,0.51c0.12,0.14,0.27,0.25,0.46,0.33c0.18,0.08,0.39,0.12,0.63,0.12c0.39,0,0.71-0.11,0.94-0.32
			c0.23-0.21,0.38-0.51,0.43-0.9h-0.52c-0.03,0.24-0.12,0.43-0.26,0.56L16.16,85.36z"/>
		<path fill="#1D1D1B" d="M34.87,83.26h-0.01c-0.09-0.17-0.22-0.3-0.38-0.39s-0.34-0.13-0.54-0.13c-0.27,0-0.49,0.05-0.68,0.15
			c-0.18,0.1-0.33,0.24-0.44,0.4c-0.11,0.16-0.19,0.34-0.24,0.53c-0.05,0.19-0.07,0.38-0.07,0.57c0,0.21,0.03,0.42,0.09,0.61
			s0.15,0.36,0.26,0.51c0.12,0.15,0.26,0.26,0.43,0.35c0.17,0.09,0.37,0.13,0.61,0.13c0.1,0,0.19-0.01,0.29-0.04
			c0.1-0.02,0.19-0.06,0.28-0.11s0.16-0.11,0.23-0.18s0.12-0.15,0.17-0.25h0.01v0.21c0,0.18-0.02,0.34-0.05,0.49
			s-0.09,0.27-0.17,0.37c-0.08,0.1-0.17,0.18-0.29,0.24c-0.12,0.06-0.26,0.09-0.43,0.09c-0.08,0-0.17,0-0.26-0.03
			c-0.09-0.02-0.18-0.05-0.26-0.09c-0.08-0.04-0.14-0.09-0.2-0.16c-0.05-0.06-0.08-0.14-0.09-0.24h-0.51c0,0.17,0.05,0.31,0.13,0.43
			s0.18,0.21,0.3,0.29c0.12,0.07,0.26,0.13,0.41,0.16c0.15,0.03,0.3,0.05,0.44,0.05c0.49,0,0.86-0.13,1.09-0.39s0.35-0.64,0.35-1.16
			V82.8h-0.48v0.45L34.87,83.26z M34.79,84.75c-0.03,0.15-0.09,0.28-0.16,0.39c-0.07,0.12-0.17,0.21-0.29,0.28
			c-0.12,0.07-0.26,0.11-0.43,0.11s-0.31-0.04-0.42-0.11s-0.2-0.16-0.27-0.28c-0.07-0.12-0.12-0.24-0.14-0.39
			c-0.03-0.14-0.04-0.28-0.04-0.43s0.02-0.29,0.05-0.43s0.09-0.26,0.16-0.36c0.07-0.11,0.17-0.19,0.29-0.25
			c0.12-0.06,0.26-0.09,0.42-0.09s0.3,0.03,0.41,0.1c0.11,0.06,0.2,0.15,0.27,0.26s0.12,0.23,0.15,0.36
			c0.03,0.13,0.05,0.27,0.05,0.41c0,0.15-0.02,0.29-0.05,0.44V84.75z"/>
		<path fill="#1D1D1B" d="M23.08,84.58c0,0.14-0.02,0.27-0.06,0.39c-0.04,0.12-0.1,0.22-0.17,0.31c-0.08,0.09-0.17,0.16-0.29,0.21
			c-0.11,0.05-0.25,0.07-0.41,0.07c-0.2,0-0.35-0.06-0.46-0.17c-0.11-0.11-0.17-0.27-0.17-0.46v-2.12h-0.51v2.06
			c0,0.17,0.02,0.32,0.05,0.46c0.03,0.14,0.09,0.26,0.18,0.36c0.08,0.1,0.19,0.18,0.33,0.24s0.31,0.09,0.51,0.09
			c0.22,0,0.42-0.05,0.59-0.14s0.31-0.24,0.42-0.43h0.01v0.5h0.48v-3.14h-0.51v1.77L23.08,84.58z"/>
		<path fill="#1D1D1B" d="M13.17,83.87c-0.13-0.09-0.27-0.17-0.44-0.22c-0.16-0.05-0.33-0.1-0.5-0.14s-0.34-0.08-0.5-0.11
			s-0.31-0.08-0.44-0.13c-0.13-0.05-0.23-0.12-0.31-0.2c-0.08-0.08-0.12-0.19-0.12-0.32c0-0.14,0.03-0.26,0.08-0.36
			c0.05-0.09,0.13-0.17,0.22-0.23c0.09-0.06,0.19-0.1,0.31-0.12C11.59,82.02,11.7,82,11.82,82c0.3,0,0.54,0.07,0.73,0.21
			s0.3,0.37,0.33,0.68h0.54c0-0.24-0.05-0.44-0.14-0.62c-0.08-0.17-0.2-0.31-0.34-0.43c-0.14-0.11-0.3-0.2-0.49-0.25
			s-0.39-0.08-0.61-0.08c-0.2,0-0.39,0.03-0.57,0.08s-0.35,0.13-0.5,0.23c-0.15,0.1-0.26,0.23-0.35,0.39
			c-0.09,0.16-0.13,0.35-0.13,0.57c0,0.2,0.04,0.36,0.12,0.49s0.18,0.24,0.31,0.32c0.13,0.09,0.28,0.15,0.44,0.2
			c0.16,0.05,0.33,0.09,0.5,0.13s0.34,0.07,0.5,0.11s0.31,0.09,0.44,0.15c0.13,0.06,0.23,0.13,0.31,0.23
			c0.08,0.09,0.12,0.21,0.12,0.36c0,0.16-0.03,0.29-0.1,0.39c-0.06,0.1-0.15,0.18-0.25,0.24s-0.22,0.1-0.35,0.12
			c-0.13,0.02-0.26,0.04-0.39,0.04c-0.16,0-0.32-0.02-0.47-0.06c-0.15-0.04-0.28-0.1-0.4-0.19c-0.11-0.08-0.21-0.19-0.28-0.32
			s-0.11-0.29-0.11-0.47h-0.54c0,0.26,0.05,0.49,0.14,0.68s0.22,0.35,0.38,0.48c0.16,0.13,0.35,0.22,0.56,0.28s0.44,0.09,0.68,0.09
			c0.2,0,0.39-0.02,0.59-0.07s0.38-0.12,0.54-0.23c0.16-0.1,0.29-0.24,0.39-0.4s0.15-0.36,0.15-0.59c0-0.21-0.04-0.39-0.12-0.53
			s-0.18-0.26-0.31-0.36L13.17,83.87z"/>
		<path fill="#1D1D1B" d="M19.95,83.06c-0.08-0.1-0.19-0.18-0.33-0.24s-0.31-0.09-0.51-0.09c-0.09,0-0.19,0.01-0.29,0.03
			s-0.19,0.05-0.28,0.09c-0.09,0.04-0.17,0.1-0.24,0.17s-0.13,0.15-0.17,0.24h-0.01V81.6h-0.51v4.33h0.51v-1.77
			c0-0.14,0.02-0.27,0.06-0.39c0.04-0.12,0.1-0.22,0.17-0.31c0.08-0.09,0.17-0.16,0.29-0.21c0.11-0.05,0.25-0.07,0.41-0.07
			c0.2,0,0.35,0.06,0.46,0.17c0.11,0.11,0.17,0.27,0.17,0.46v2.12h0.51v-2.06c0-0.17-0.02-0.32-0.05-0.46
			c-0.03-0.14-0.09-0.26-0.18-0.36L19.95,83.06z"/>
		<path fill="#1D1D1B" d="M31.59,83.06c-0.08-0.1-0.19-0.18-0.33-0.24s-0.31-0.09-0.51-0.09c-0.22,0-0.42,0.05-0.59,0.14
			s-0.31,0.24-0.42,0.43h-0.01v-0.5h-0.48v3.14h0.51v-1.77c0-0.14,0.02-0.27,0.06-0.39c0.04-0.12,0.1-0.22,0.17-0.31
			c0.08-0.09,0.17-0.16,0.29-0.21c0.11-0.05,0.25-0.07,0.41-0.07c0.2,0,0.35,0.06,0.46,0.17c0.11,0.11,0.17,0.27,0.17,0.46v2.12
			h0.51v-2.06c0-0.17-0.02-0.32-0.05-0.46c-0.03-0.14-0.09-0.26-0.18-0.36L31.59,83.06z"/>
		<path fill="#1D1D1B" d="M27.88,84.58c0,0.14-0.02,0.27-0.06,0.39c-0.04,0.12-0.1,0.22-0.17,0.31c-0.08,0.09-0.17,0.16-0.29,0.21
			c-0.11,0.05-0.25,0.07-0.41,0.07c-0.2,0-0.35-0.06-0.46-0.17c-0.11-0.11-0.17-0.27-0.17-0.46v-2.12h-0.51v2.06
			c0,0.17,0.02,0.32,0.05,0.46c0.03,0.14,0.09,0.26,0.18,0.36c0.08,0.1,0.19,0.18,0.33,0.24s0.31,0.09,0.51,0.09
			c0.22,0,0.42-0.05,0.59-0.14s0.31-0.24,0.42-0.43h0.01v0.5h0.48v-3.14h-0.51v1.77L27.88,84.58z"/>
		<path fill="#1D1D1B" d="M55.09,84.58c0,0.14-0.02,0.27-0.06,0.39s-0.1,0.22-0.17,0.31c-0.08,0.09-0.17,0.16-0.29,0.21
			c-0.11,0.05-0.25,0.07-0.41,0.07c-0.2,0-0.35-0.06-0.46-0.17s-0.17-0.27-0.17-0.46v-2.12h-0.51v2.06c0,0.17,0.02,0.32,0.05,0.46
			s0.09,0.26,0.18,0.36c0.08,0.1,0.19,0.18,0.33,0.24c0.14,0.06,0.31,0.09,0.51,0.09c0.22,0,0.42-0.05,0.59-0.14
			c0.17-0.09,0.31-0.24,0.42-0.43h0.01v0.5h0.48v-3.14h-0.51v1.77L55.09,84.58z"/>
		<path fill="#1D1D1B" d="M93.31,83.47H93.3v-0.66h-0.48v3.14h0.51v-1.4c0-0.2,0.02-0.38,0.06-0.53c0.04-0.16,0.1-0.29,0.19-0.4
			c0.09-0.11,0.2-0.19,0.35-0.25c0.14-0.06,0.32-0.08,0.52-0.08v-0.55c-0.28,0-0.5,0.05-0.68,0.17
			C93.59,83.03,93.44,83.22,93.31,83.47L93.31,83.47z"/>
		<path fill="#1D1D1B" d="M97.4,85.48c-0.01-0.06-0.02-0.15-0.02-0.27V83.6c0-0.18-0.03-0.33-0.1-0.44s-0.16-0.2-0.27-0.26
			c-0.11-0.06-0.24-0.1-0.38-0.12c-0.14-0.02-0.28-0.03-0.42-0.03c-0.17,0-0.34,0.02-0.49,0.05c-0.16,0.04-0.29,0.1-0.41,0.18
			s-0.22,0.19-0.29,0.32s-0.11,0.3-0.12,0.49h0.51c0.01-0.23,0.09-0.39,0.23-0.47s0.32-0.12,0.54-0.12c0.08,0,0.16,0,0.24,0.02
			c0.08,0.01,0.16,0.04,0.22,0.07c0.07,0.04,0.12,0.09,0.16,0.16c0.04,0.07,0.06,0.16,0.06,0.27c0,0.1-0.03,0.17-0.08,0.22
			c-0.06,0.05-0.13,0.09-0.23,0.12c-0.09,0.03-0.2,0.05-0.33,0.06c-0.13,0.01-0.26,0.04-0.4,0.06c-0.13,0.02-0.26,0.06-0.39,0.09
			c-0.13,0.04-0.24,0.09-0.34,0.16c-0.1,0.07-0.18,0.16-0.24,0.27c-0.06,0.11-0.09,0.26-0.09,0.44c0,0.16,0.03,0.29,0.08,0.4
			s0.13,0.2,0.22,0.27c0.09,0.07,0.2,0.12,0.33,0.15c0.13,0.03,0.26,0.05,0.4,0.05c0.22,0,0.42-0.04,0.6-0.12
			c0.19-0.08,0.35-0.2,0.49-0.37c0,0.17,0.04,0.29,0.12,0.37s0.18,0.12,0.32,0.12c0.08,0,0.15,0,0.21-0.02
			c0.06-0.01,0.11-0.03,0.16-0.05v-0.41c-0.06,0.02-0.11,0.03-0.16,0.03c-0.08,0-0.13-0.03-0.14-0.08L97.4,85.48z M96.87,84.85
			c0,0.07-0.02,0.15-0.05,0.23c-0.04,0.08-0.09,0.16-0.17,0.23s-0.17,0.13-0.29,0.18s-0.26,0.07-0.43,0.07c-0.08,0-0.16,0-0.23-0.02
			s-0.14-0.04-0.19-0.08s-0.1-0.08-0.13-0.14s-0.05-0.13-0.05-0.22c0-0.1,0.02-0.18,0.05-0.24c0.03-0.06,0.08-0.12,0.14-0.16
			s0.12-0.08,0.2-0.1c0.08-0.02,0.16-0.04,0.24-0.06c0.08-0.02,0.17-0.03,0.26-0.04c0.09-0.01,0.18-0.02,0.26-0.04
			c0.08-0.01,0.16-0.03,0.23-0.05c0.07-0.02,0.13-0.05,0.18-0.08v0.52H96.87z"/>
		<path fill="#1D1D1B" d="M91.59,81.87h-0.51v0.94h-0.53v0.46h0.53v2c0,0.15,0.01,0.26,0.04,0.35s0.07,0.16,0.13,0.21
			c0.06,0.05,0.13,0.08,0.23,0.1c0.09,0.02,0.21,0.03,0.34,0.03h0.39V85.5h-0.23c-0.08,0-0.15,0-0.2,0c-0.05,0-0.09-0.02-0.12-0.04
			c-0.03-0.02-0.05-0.05-0.06-0.08c-0.01-0.04-0.02-0.09-0.02-0.15v-1.95h0.62v-0.46h-0.62v-0.94L91.59,81.87z"/>
		<path fill="#1D1D1B" d="M90.24,83.93c-0.04-0.21-0.12-0.4-0.23-0.58s-0.26-0.32-0.44-0.44s-0.41-0.17-0.69-0.17
			c-0.21,0-0.41,0.04-0.59,0.12c-0.18,0.08-0.33,0.19-0.46,0.34c-0.13,0.15-0.23,0.32-0.3,0.52s-0.11,0.42-0.11,0.65
			c0,0.24,0.04,0.46,0.11,0.66c0.06,0.2,0.16,0.38,0.28,0.52c0.12,0.15,0.28,0.26,0.46,0.34c0.18,0.08,0.4,0.12,0.65,0.12
			c0.35,0,0.65-0.09,0.88-0.27c0.23-0.18,0.38-0.45,0.45-0.8h-0.5c-0.04,0.21-0.14,0.36-0.28,0.46s-0.32,0.15-0.53,0.15
			c-0.17,0-0.31-0.03-0.44-0.08c-0.12-0.06-0.23-0.13-0.31-0.23c-0.08-0.09-0.14-0.2-0.17-0.33c-0.04-0.12-0.05-0.25-0.05-0.39h2.33
			c0-0.19,0-0.39-0.05-0.6L90.24,83.93z M87.97,84.08c0-0.12,0.03-0.24,0.08-0.34c0.04-0.11,0.1-0.2,0.18-0.28s0.17-0.14,0.27-0.19
			c0.11-0.05,0.23-0.07,0.36-0.07c0.12,0,0.24,0.02,0.35,0.07s0.2,0.11,0.28,0.19s0.14,0.17,0.19,0.28s0.07,0.22,0.08,0.35h-1.78
			L87.97,84.08z"/>
		<rect x="98.3" y="82.81" fill="#1D1D1B" width="0.51" height="3.14"/>
		<path fill="#1D1D1B" d="M102.02,83.06c-0.08-0.1-0.19-0.18-0.33-0.24s-0.31-0.09-0.51-0.09c-0.22,0-0.42,0.05-0.59,0.14
			s-0.31,0.24-0.42,0.43h-0.01v-0.5h-0.48v3.14h0.51v-1.77c0-0.14,0.02-0.27,0.06-0.39s0.1-0.22,0.17-0.31
			c0.08-0.09,0.17-0.16,0.29-0.21c0.11-0.05,0.25-0.07,0.41-0.07c0.2,0,0.35,0.06,0.46,0.17s0.17,0.27,0.17,0.46v2.12h0.51v-2.06
			c0-0.17-0.02-0.32-0.05-0.46c-0.03-0.14-0.09-0.26-0.18-0.36L102.02,83.06z"/>
		<rect x="98.3" y="81.61" fill="#1D1D1B" width="0.51" height="0.63"/>
		<path fill="#1D1D1B" d="M105.74,83.93c-0.04-0.21-0.12-0.4-0.23-0.58s-0.26-0.32-0.44-0.44s-0.41-0.17-0.69-0.17
			c-0.21,0-0.41,0.04-0.59,0.12c-0.18,0.08-0.33,0.19-0.46,0.34c-0.13,0.15-0.23,0.32-0.3,0.52s-0.11,0.42-0.11,0.65
			c0,0.24,0.04,0.46,0.11,0.66c0.06,0.2,0.16,0.38,0.28,0.52c0.12,0.15,0.28,0.26,0.46,0.34c0.18,0.08,0.4,0.12,0.65,0.12
			c0.35,0,0.65-0.09,0.88-0.27c0.23-0.18,0.38-0.45,0.45-0.8h-0.5c-0.04,0.21-0.14,0.36-0.28,0.46s-0.32,0.15-0.53,0.15
			c-0.17,0-0.31-0.03-0.44-0.08c-0.12-0.06-0.23-0.13-0.31-0.23c-0.08-0.09-0.14-0.2-0.17-0.33c-0.04-0.12-0.05-0.25-0.05-0.39h2.33
			c0-0.19,0-0.39-0.05-0.6L105.74,83.93z M103.47,84.08c0-0.12,0.03-0.24,0.08-0.34c0.04-0.11,0.1-0.2,0.18-0.28
			s0.17-0.14,0.27-0.19c0.11-0.05,0.23-0.07,0.36-0.07c0.12,0,0.24,0.02,0.35,0.07s0.2,0.11,0.28,0.19s0.14,0.17,0.19,0.28
			s0.07,0.22,0.08,0.35h-1.78L103.47,84.08z"/>
		<path fill="#1D1D1B" d="M107.38,82.91c-0.18,0.12-0.33,0.31-0.46,0.56h-0.01v-0.66h-0.48v3.14h0.51v-1.4
			c0-0.2,0.02-0.38,0.06-0.53c0.04-0.16,0.1-0.29,0.19-0.4c0.09-0.11,0.2-0.19,0.35-0.25c0.14-0.06,0.32-0.08,0.52-0.08v-0.55
			C107.78,82.74,107.56,82.79,107.38,82.91L107.38,82.91z"/>
		<path fill="#1D1D1B" d="M86.22,83.23h-0.01C86.15,83.14,86.08,83.06,86,83c-0.08-0.06-0.17-0.11-0.26-0.15
			c-0.09-0.04-0.18-0.07-0.28-0.08c-0.09-0.02-0.18-0.02-0.26-0.02c-0.24,0-0.44,0.04-0.62,0.13s-0.33,0.21-0.44,0.36
			s-0.21,0.32-0.26,0.52c-0.06,0.2-0.09,0.41-0.09,0.63s0.03,0.43,0.09,0.63s0.15,0.37,0.27,0.52c0.12,0.15,0.27,0.27,0.44,0.36
			c0.18,0.09,0.39,0.13,0.63,0.13c0.22,0,0.41-0.04,0.59-0.12c0.18-0.08,0.31-0.21,0.4-0.38h0.01v0.42h0.51v-4.33h-0.51L86.22,83.23
			L86.22,83.23z M86.19,84.81c-0.03,0.14-0.09,0.27-0.17,0.38s-0.17,0.2-0.29,0.27s-0.27,0.1-0.44,0.1s-0.31-0.03-0.43-0.1
			c-0.12-0.06-0.22-0.15-0.3-0.26s-0.14-0.23-0.17-0.37c-0.04-0.14-0.06-0.28-0.06-0.43s0.02-0.3,0.05-0.45
			c0.03-0.15,0.08-0.28,0.16-0.39c0.07-0.11,0.17-0.2,0.29-0.27s0.27-0.1,0.44-0.1s0.33,0.03,0.45,0.1c0.12,0.07,0.23,0.15,0.3,0.26
			c0.08,0.11,0.14,0.24,0.17,0.38c0.04,0.14,0.05,0.29,0.05,0.45C86.24,84.53,86.22,84.67,86.19,84.81z"/>
		<path fill="#1D1D1B" d="M79.16,84.58c0,0.14-0.02,0.27-0.06,0.39s-0.1,0.22-0.17,0.31c-0.08,0.09-0.17,0.16-0.29,0.21
			c-0.11,0.05-0.25,0.07-0.41,0.07c-0.2,0-0.35-0.06-0.46-0.17s-0.17-0.27-0.17-0.46v-2.12h-0.51v2.06c0,0.17,0.02,0.32,0.05,0.46
			c0.03,0.14,0.09,0.26,0.18,0.36c0.08,0.1,0.19,0.18,0.33,0.24s0.31,0.09,0.51,0.09c0.22,0,0.42-0.05,0.59-0.14
			s0.31-0.24,0.42-0.43h0.01v0.5h0.48v-3.14h-0.51v1.77L79.16,84.58z"/>
		<rect x="65.8" y="81.61" fill="#1D1D1B" width="0.54" height="0.63"/>
		<path fill="#1D1D1B" d="M82.86,83.06c-0.08-0.1-0.19-0.18-0.33-0.24s-0.31-0.09-0.51-0.09c-0.22,0-0.42,0.05-0.59,0.14
			s-0.31,0.24-0.42,0.43H81v-0.5h-0.48v3.14h0.51v-1.77c0-0.14,0.02-0.27,0.06-0.39s0.1-0.22,0.17-0.31
			c0.08-0.09,0.17-0.16,0.29-0.21c0.11-0.05,0.25-0.07,0.41-0.07c0.2,0,0.35,0.06,0.46,0.17s0.17,0.27,0.17,0.46v2.12h0.51v-2.06
			c0-0.17-0.02-0.32-0.05-0.46c-0.03-0.14-0.09-0.26-0.18-0.36L82.86,83.06z"/>
		<path fill="#1D1D1B" d="M67.41,84.58c0,0.14-0.02,0.27-0.06,0.39s-0.1,0.22-0.17,0.31c-0.08,0.09-0.17,0.16-0.29,0.21
			c-0.11,0.05-0.25,0.07-0.41,0.07c-0.2,0-0.35-0.06-0.46-0.17s-0.17-0.27-0.17-0.46v-2.12h-0.51v2.06c0,0.17,0.02,0.32,0.05,0.46
			c0.03,0.14,0.09,0.26,0.18,0.36c0.08,0.1,0.19,0.18,0.33,0.24s0.31,0.09,0.51,0.09c0.22,0,0.42-0.05,0.59-0.14
			s0.31-0.24,0.42-0.43h0.01v0.5h0.48v-3.14H67.4v1.77L67.41,84.58z"/>
		<path fill="#1D1D1B" d="M51.39,83.47h-0.01v-0.66H50.9v3.14h0.51v-1.4c0-0.2,0.02-0.38,0.06-0.53c0.04-0.16,0.1-0.29,0.19-0.4
			s0.2-0.19,0.35-0.25c0.14-0.06,0.32-0.08,0.52-0.08v-0.55c-0.28,0-0.5,0.05-0.69,0.17c-0.18,0.12-0.33,0.31-0.46,0.56L51.39,83.47
			z"/>
		<path fill="#1D1D1B" d="M60.52,82.95c-0.09-0.07-0.2-0.13-0.32-0.16c-0.13-0.03-0.27-0.05-0.42-0.05c-0.2,0-0.39,0.05-0.56,0.14
			c-0.17,0.09-0.31,0.22-0.41,0.39c-0.06-0.19-0.17-0.33-0.33-0.41c-0.16-0.08-0.33-0.12-0.52-0.12c-0.44,0-0.77,0.18-1,0.53h-0.01
			v-0.46h-0.48v3.14h0.51V84c0-0.06,0.02-0.14,0.05-0.23c0.03-0.09,0.08-0.18,0.14-0.26c0.07-0.08,0.15-0.16,0.26-0.22
			c0.1-0.06,0.23-0.09,0.38-0.09c0.11,0,0.21,0.02,0.28,0.05c0.08,0.03,0.14,0.08,0.18,0.15c0.04,0.06,0.08,0.14,0.09,0.22
			c0.02,0.09,0.03,0.18,0.03,0.28v2.06h0.51v-1.95c0-0.24,0.07-0.44,0.22-0.58c0.15-0.15,0.34-0.22,0.59-0.22
			c0.12,0,0.23,0.02,0.3,0.05c0.08,0.04,0.14,0.09,0.18,0.15c0.04,0.06,0.07,0.14,0.09,0.22c0.02,0.09,0.02,0.18,0.02,0.27v2.06
			h0.51v-2.3c0-0.16-0.03-0.3-0.08-0.42c-0.05-0.12-0.12-0.21-0.21-0.28L60.52,82.95z"/>
		<path fill="#1D1D1B" d="M64.56,81.56c-0.28,0-0.49,0.07-0.64,0.2s-0.22,0.32-0.22,0.58v0.47h-0.52v0.46h0.52v2.68h0.51v-2.68h0.6
			v-0.46h-0.6v-0.44c0-0.14,0.03-0.23,0.1-0.28c0.07-0.05,0.16-0.07,0.29-0.07c0.04,0,0.09,0,0.14,0s0.1,0.02,0.14,0.03V81.6
			c0,0-0.1-0.03-0.17-0.04c-0.06,0-0.12-0.01-0.17-0.01L64.56,81.56z"/>
		<polygon fill="#1D1D1B" points="75.6,83.48 73.34,83.48 73.34,81.61 72.77,81.61 72.77,85.95 73.34,85.95 73.34,83.96 75.6,83.96 
			75.6,85.95 76.17,85.95 76.17,81.61 75.6,81.61 		"/>
		<path fill="#1D1D1B" d="M49.67,81.87h-0.51v0.94h-0.53v0.46h0.53v2c0,0.15,0.01,0.26,0.04,0.35c0.03,0.09,0.07,0.16,0.13,0.21
			c0.06,0.05,0.13,0.08,0.23,0.1c0.09,0.02,0.21,0.03,0.34,0.03h0.39V85.5h-0.23c-0.08,0-0.15,0-0.2,0s-0.09-0.02-0.12-0.04
			c-0.03-0.02-0.05-0.05-0.06-0.08c-0.01-0.04-0.02-0.09-0.02-0.15v-1.95h0.62v-0.46h-0.62v-0.94L49.67,81.87z"/>
		<path fill="#1D1D1B" d="M69.25,83.47h-0.01v-0.66h-0.48v3.14h0.51v-1.4c0-0.2,0.02-0.38,0.06-0.53c0.04-0.16,0.1-0.29,0.19-0.4
			c0.09-0.11,0.2-0.19,0.35-0.25c0.14-0.06,0.32-0.08,0.52-0.08v-0.55c-0.28,0-0.5,0.05-0.68,0.17
			C69.53,83.03,69.38,83.22,69.25,83.47L69.25,83.47z"/>
		<rect x="66.93" y="81.61" fill="#1D1D1B" width="0.54" height="0.63"/>
	</g>
	<g>
		<path fill="#486597" d="M125.69,80.23c-0.18-0.13-0.43-0.39-0.5-0.39c0,0-0.02,0-0.02,0.01c-0.04,0.27-0.12,0.66-0.2,1.42
			c-0.04,0.36-0.19,1.06-0.24,1.62c-0.02,0.24-0.31,1.14-0.21,1.85c0.02,0.17,0,0.16,0,0.32c0,0.08,0,0.1-0.19,0.23
			c-0.16,0.02-0.12,0.9-0.11,1.14c0,0.18,0.65-0.22,0.9-0.25c0.53-0.05,1.03-0.11,1.03-0.24c0.02-0.67,0.72-3.23,0.73-3.51
			c-0.05-1.41-0.94-2-1.2-2.2L125.69,80.23z"/>
		<path fill="#486597" d="M128.86,86.89c-0.35-0.04-0.51,0.07-0.84,0.11c-0.22,0.03-0.64,0-0.82,0.26
			c-0.14,0.21-0.06,0.56-0.08,0.65c-0.04,0.12-0.11,0.79-0.02,0.8c0.07,0,0.17-0.22,0.29-0.38c0.14-0.19,0.47-0.45,0.63-0.49
			c0.51-0.13,0.73-0.22,1.2-0.25c0.24-0.02,0.5,0.01,0.77,0.01c0.41,0,0.74,0.11,0.76,0.03c0.04-0.16-1.55-0.7-1.89-0.75V86.89z"/>
		<path fill="#486597" d="M113.22,58.73H4.55v32.54h140.89V58.73C145.44,58.73,113.22,58.73,113.22,58.73z M113.22,90.47H5.35V59.53
			h107.87V90.47z M142.48,85.3c-1.85,2.17-5.39,2.3-7.9,2.12c-1.39,0.54-1.53,1.28-4.03,1.53c-0.97,0.04-8.96,1.41-5.16-0.64
			c1.46-1.47,0-0.71-1.04-0.67c-0.33,0.54-1.2,1.26-1.93,0.76c-1.56-0.16-0.47-0.8,0.36-1.29c0.83-1.17,0.13-1.8,0.46-3.77
			c0.11-2.02,0.02-4.18-0.08-6.09c-0.72-1.21-1.15-2.86-0.81-4.24c0.8-1.78,1.41-3.57,1.8-5.42c0.81-3.9-2.58-2.12-3.81-4.62
			c-1.32-2.46,1.41-1.79,2.85-1.73c0.81-0.49,1.14-1.1,3.12-0.91c4.57,0.86,2.54,5.59,3.36,8.95c1.45,2.57,3.71,5.93,4.74,9.3
			c0.94,1.96,1.69,5.28,0.64,7.35c4.05,2.29,10.9-5,7.43-0.64V85.3z"/>
	</g>
</g>
<g>
	<rect x="33.852" y="26.814" fill="none" width="82.295" height="28.363"/>
	<path fill="#3C3C3B" d="M47.037,28.209h-1.45v-1.174h4.187v1.174h-1.457v6.91h-1.28V28.209z"/>
	<path fill="#3C3C3B" d="M50.912,32.543c0.014,1.305,0.62,1.66,1.301,1.66c0.426,0,0.788-0.096,1.048-0.208l0.181,0.921
		c-0.364,0.171-0.928,0.274-1.461,0.274c-1.505,0-2.313-1.092-2.313-2.899c0-1.932,0.926-3.107,2.172-3.107
		c1.228,0,1.847,1.109,1.847,2.675c0,0.333-0.014,0.53-0.034,0.684H50.912z M52.5,31.632c0.01-0.938-0.297-1.494-0.751-1.494
		c-0.556,0-0.806,0.809-0.832,1.494H52.5z"/>
	<path fill="#3C3C3B" d="M55.938,27.75c0.007,0.44-0.289,0.737-0.708,0.737c-0.373,0-0.672-0.297-0.666-0.737
		c-0.007-0.455,0.306-0.744,0.684-0.744C55.649,27.006,55.938,27.295,55.938,27.75z M54.622,35.119V29.28h1.28v5.839H54.622z"/>
	<path fill="#3C3C3B" d="M57.082,26.819h1.28v8.299h-1.28V26.819z"/>
	<path fill="#3C3C3B" d="M63.587,29.28c-0.026,0.476-0.055,1.047-0.055,1.836v3.301c0,1.384-0.215,2.022-0.648,2.466
		c-0.396,0.404-0.981,0.634-1.743,0.634c-0.522,0-1.012-0.104-1.382-0.281l0.257-0.992c0.267,0.129,0.642,0.25,1.103,0.25
		c0.764,0,1.14-0.495,1.14-1.582v-0.458h-0.024c-0.199,0.408-0.617,0.636-1.078,0.636c-1.186,0-1.774-1.311-1.774-2.851
		c0-2.036,0.924-3.056,1.91-3.056c0.53,0,0.874,0.319,1.079,0.718h0.024l0.065-0.623H63.587z M62.259,31.357
		c0-0.151-0.021-0.308-0.057-0.426c-0.086-0.316-0.271-0.664-0.654-0.664c-0.609,0-0.896,0.827-0.896,1.932
		c0,1.27,0.379,1.876,0.88,1.876c0.241,0,0.512-0.116,0.658-0.608c0.055-0.154,0.069-0.327,0.069-0.488V31.357z"/>
	<path fill="#3C3C3B" d="M65.72,32.543c0.014,1.305,0.62,1.66,1.301,1.66c0.426,0,0.788-0.096,1.048-0.208l0.181,0.921
		c-0.364,0.171-0.928,0.274-1.461,0.274c-1.505,0-2.313-1.092-2.313-2.899c0-1.932,0.926-3.107,2.172-3.107
		c1.228,0,1.847,1.109,1.847,2.675c0,0.333-0.014,0.53-0.034,0.684H65.72z M67.309,31.632c0.01-0.938-0.298-1.494-0.751-1.494
		c-0.556,0-0.806,0.809-0.832,1.494H67.309z"/>
	<path fill="#3C3C3B" d="M69.43,30.925c0-0.66-0.029-1.128-0.048-1.646h1.109l0.065,0.688h0.024
		c0.277-0.468,0.769-0.783,1.381-0.783c0.973,0,1.491,0.756,1.491,2.11v3.825h-1.28v-3.703c0-0.583-0.124-1.153-0.682-1.153
		c-0.317,0-0.603,0.244-0.716,0.714c-0.038,0.129-0.065,0.317-0.065,0.531v3.61h-1.28V30.925z"/>
	<path fill="#3C3C3B" d="M78.596,32.185c0,2.355-1.213,3.029-2.101,3.029c-1.239,0-2.083-1.036-2.083-3.001
		c0-2.109,1.036-3.029,2.126-3.029C77.764,29.184,78.596,30.261,78.596,32.185z M75.688,32.192c0,0.983,0.166,2.034,0.848,2.034
		c0.638,0,0.783-1.153,0.783-2.034c0-0.847-0.146-2.021-0.807-2.021C75.827,30.172,75.688,31.346,75.688,32.192z"/>
	<path fill="#3C3C3B" d="M79.559,30.925c0-0.66-0.029-1.128-0.049-1.646h1.116l0.065,0.698h0.023
		c0.277-0.451,0.747-0.793,1.356-0.793c0.604,0,1.044,0.282,1.251,0.84h0.023c0.149-0.255,0.362-0.482,0.586-0.626
		c0.235-0.142,0.513-0.214,0.812-0.214c0.931,0,1.463,0.715,1.463,2.156v3.778h-1.273v-3.537c0-0.707-0.091-1.333-0.665-1.333
		c-0.325,0-0.59,0.25-0.707,0.683c-0.029,0.117-0.042,0.289-0.042,0.465v3.722h-1.273v-3.736c0-0.522-0.074-1.134-0.652-1.134
		c-0.305,0-0.604,0.242-0.711,0.714c-0.031,0.125-0.052,0.293-0.052,0.466v3.689h-1.272V30.925z"/>
	<path fill="#3C3C3B" d="M87.395,30.925c0-0.66-0.029-1.128-0.049-1.646h1.116l0.065,0.698h0.023
		c0.277-0.451,0.747-0.793,1.356-0.793c0.604,0,1.044,0.282,1.251,0.84h0.023c0.149-0.255,0.362-0.482,0.586-0.626
		c0.235-0.142,0.513-0.214,0.812-0.214c0.931,0,1.463,0.715,1.463,2.156v3.778H92.77v-3.537c0-0.707-0.091-1.333-0.665-1.333
		c-0.325,0-0.59,0.25-0.707,0.683c-0.029,0.117-0.042,0.289-0.042,0.465v3.722h-1.273v-3.736c0-0.522-0.074-1.134-0.652-1.134
		c-0.305,0-0.604,0.242-0.711,0.714c-0.031,0.125-0.052,0.293-0.052,0.466v3.689h-1.272V30.925z"/>
	<path fill="#3C3C3B" d="M96.248,32.543c0.014,1.305,0.619,1.66,1.301,1.66c0.427,0,0.788-0.096,1.048-0.208l0.182,0.921
		c-0.365,0.171-0.928,0.274-1.462,0.274c-1.505,0-2.312-1.092-2.312-2.899c0-1.932,0.926-3.107,2.172-3.107
		c1.228,0,1.847,1.109,1.847,2.675c0,0.333-0.014,0.53-0.034,0.684H96.248z M97.836,31.632c0.011-0.938-0.297-1.494-0.751-1.494
		c-0.556,0-0.806,0.809-0.832,1.494H97.836z"/>
	<path fill="#3C3C3B" d="M99.958,30.925c0-0.66-0.029-1.128-0.048-1.646h1.109l0.064,0.688h0.024
		c0.277-0.468,0.769-0.783,1.38-0.783c0.974,0,1.492,0.756,1.492,2.11v3.825h-1.28v-3.703c0-0.583-0.124-1.153-0.682-1.153
		c-0.317,0-0.603,0.244-0.716,0.714c-0.037,0.129-0.064,0.317-0.064,0.531v3.61h-1.28V30.925z"/>
	<path fill="#3C3C3B" d="M42.255,49.518l-0.075-0.595H42.15c-0.291,0.451-0.724,0.691-1.236,0.691c-0.837,0-1.469-0.702-1.469-1.727
		c0-1.5,1.269-2.135,2.59-2.146v-0.154c0-0.608-0.238-1.036-0.873-1.036c-0.418,0-0.772,0.122-1.089,0.324l-0.246-0.874
		c0.287-0.182,0.902-0.417,1.613-0.417c1.503,0,1.888,1.029,1.888,2.271v2.333c0,0.454,0.014,0.942,0.076,1.33H42.255z
		 M42.069,46.595c-0.499,0.007-1.402,0.146-1.402,1.162c0,0.659,0.352,0.897,0.633,0.897c0.321,0,0.629-0.218,0.737-0.668
		c0.024-0.091,0.031-0.195,0.031-0.296V46.595z"/>
	<path fill="#3C3C3B" d="M44.524,45.325c0-0.66-0.029-1.128-0.048-1.646h1.109l0.065,0.687h0.024
		c0.277-0.467,0.769-0.783,1.381-0.783c0.973,0,1.491,0.756,1.491,2.11v3.825h-1.28v-3.703c0-0.583-0.124-1.153-0.682-1.153
		c-0.317,0-0.603,0.244-0.716,0.714c-0.038,0.129-0.065,0.317-0.065,0.531v3.61h-1.28V45.325z"/>
	<path fill="#3C3C3B" d="M55.544,41.219v6.721c0,0.479,0.029,1.13,0.048,1.578h-1.099l-0.075-0.692h-0.034
		c-0.202,0.415-0.647,0.789-1.218,0.789c-1.13,0-1.764-1.239-1.764-2.999c0-2.049,0.88-3.032,1.824-3.032
		c0.481,0,0.834,0.231,1.021,0.634h0.024v-2.999H55.544z M54.271,45.912c0-0.111,0-0.242-0.019-0.36
		c-0.055-0.469-0.318-0.885-0.695-0.885c-0.647,0-0.878,0.921-0.878,1.966c0,1.166,0.31,1.925,0.848,1.925
		c0.24,0,0.539-0.125,0.701-0.724c0.031-0.1,0.044-0.229,0.044-0.375V45.912z"/>
	<path fill="#3C3C3B" d="M57.746,46.943c0.014,1.305,0.62,1.66,1.301,1.66c0.426,0,0.788-0.096,1.048-0.208l0.181,0.921
		c-0.364,0.171-0.928,0.274-1.461,0.274c-1.505,0-2.313-1.092-2.313-2.899c0-1.932,0.926-3.107,2.172-3.107
		c1.228,0,1.847,1.11,1.847,2.675c0,0.333-0.014,0.53-0.034,0.684H57.746z M59.335,46.032c0.01-0.938-0.298-1.494-0.751-1.494
		c-0.556,0-0.806,0.809-0.832,1.494H59.335z"/>
	<path fill="#3C3C3B" d="M61.451,45.325c0-0.541-0.029-1.149-0.048-1.646h1.12l0.065,0.881h0.038
		c0.226-0.592,0.709-0.977,1.186-0.977c0.125,0,0.195,0.007,0.271,0.021v1.28c-0.079-0.014-0.162-0.014-0.273-0.014
		c-0.443,0-0.889,0.37-1.025,1.002c-0.032,0.141-0.053,0.337-0.053,0.56v3.085h-1.28V45.325z"/>
	<path fill="#3C3C3B" d="M67.882,47.411l-0.436,2.107h-1.241l1.798-8.083h1.495l1.672,8.083h-1.251l-0.429-2.107H67.882z
		 M69.355,46.408l-0.338-1.855c-0.096-0.528-0.204-1.274-0.292-1.84h-0.035c-0.089,0.571-0.209,1.341-0.307,1.846l-0.354,1.85
		H69.355z"/>
	<path fill="#3C3C3B" d="M75.886,47.822c0,0.634,0.029,1.201,0.048,1.697h-1.109l-0.075-0.613h-0.024
		c-0.229,0.346-0.69,0.709-1.305,0.709c-1.07,0-1.497-0.809-1.497-2.328V43.68h1.28v3.452c0,0.832,0.151,1.412,0.674,1.412
		c0.392,0,0.593-0.341,0.656-0.571c0.044-0.132,0.072-0.313,0.072-0.507V43.68h1.28V47.822z"/>
	<path fill="#3C3C3B" d="M76.994,48.309c0.219,0.139,0.62,0.307,1.007,0.307c0.456,0,0.736-0.244,0.736-0.668
		c0-0.366-0.17-0.606-0.712-0.948c-0.867-0.517-1.184-1.079-1.184-1.672c0-1.005,0.733-1.745,1.785-1.745
		c0.473,0,0.84,0.134,1.12,0.284l-0.262,0.946c-0.223-0.141-0.485-0.249-0.799-0.249c-0.442,0-0.66,0.294-0.66,0.608
		c0,0.317,0.143,0.5,0.703,0.856c0.776,0.464,1.19,1.039,1.19,1.768c0,1.187-0.831,1.793-1.93,1.793
		c-0.458,0-0.989-0.132-1.249-0.335L76.994,48.309z"/>
	<path fill="#3C3C3B" d="M80.735,49.518c0.019-0.434,0.048-1.099,0.048-1.578v-6.721h1.273v3.097h0.023
		c0.292-0.494,0.691-0.732,1.224-0.732c1.033,0,1.629,1.176,1.629,2.899c0,2.075-0.838,3.132-1.845,3.132
		c-0.545,0-0.874-0.271-1.151-0.818h-0.034l-0.075,0.722H80.735z M82.057,47.442c0,0.14,0.021,0.274,0.051,0.368
		c0.168,0.615,0.468,0.748,0.686,0.748c0.623,0,0.863-0.814,0.863-1.986c0-1.082-0.253-1.904-0.874-1.904
		c-0.328,0-0.601,0.38-0.68,0.763c-0.025,0.11-0.046,0.262-0.046,0.379V47.442z"/>
	<path fill="#3C3C3B" d="M87.204,42.15c0.007,0.44-0.289,0.737-0.708,0.737c-0.373,0-0.672-0.297-0.665-0.737
		c-0.007-0.455,0.306-0.744,0.684-0.744C86.915,41.406,87.204,41.695,87.204,42.15z M85.888,49.518V43.68h1.28v5.839H85.888z"/>
	<path fill="#3C3C3B" d="M88.348,41.219h1.28v8.299h-1.28V41.219z"/>
	<path fill="#3C3C3B" d="M94.784,41.219v6.721c0,0.479,0.029,1.13,0.048,1.578h-1.099l-0.075-0.692h-0.034
		c-0.202,0.415-0.647,0.789-1.219,0.789c-1.13,0-1.764-1.239-1.764-2.999c0-2.049,0.88-3.032,1.824-3.032
		c0.48,0,0.834,0.231,1.021,0.634h0.023v-2.999H94.784z M93.511,45.912c0-0.111,0-0.242-0.019-0.36
		c-0.055-0.469-0.318-0.885-0.695-0.885c-0.647,0-0.879,0.921-0.879,1.966c0,1.166,0.311,1.925,0.848,1.925
		c0.24,0,0.539-0.125,0.701-0.724c0.03-0.1,0.044-0.229,0.044-0.375V45.912z"/>
	<path fill="#3C3C3B" d="M99.897,47.822c0,0.634,0.029,1.201,0.048,1.697h-1.109l-0.075-0.613h-0.023
		c-0.229,0.346-0.69,0.709-1.306,0.709c-1.07,0-1.496-0.809-1.496-2.328V43.68h1.279v3.452c0,0.832,0.151,1.412,0.675,1.412
		c0.392,0,0.593-0.341,0.656-0.571c0.044-0.132,0.071-0.313,0.071-0.507V43.68h1.28V47.822z"/>
	<path fill="#3C3C3B" d="M101.104,45.325c0-0.66-0.029-1.128-0.048-1.646h1.109l0.064,0.687h0.024
		c0.277-0.467,0.769-0.783,1.38-0.783c0.974,0,1.492,0.756,1.492,2.11v3.825h-1.28v-3.703c0-0.583-0.124-1.153-0.682-1.153
		c-0.317,0-0.603,0.244-0.716,0.714c-0.037,0.129-0.064,0.317-0.064,0.531v3.61h-1.28V45.325z"/>
	<path fill="#3C3C3B" d="M110.296,43.68c-0.025,0.476-0.055,1.047-0.055,1.836v3.301c0,1.384-0.216,2.022-0.648,2.466
		c-0.396,0.404-0.981,0.634-1.742,0.634c-0.522,0-1.013-0.105-1.382-0.281l0.257-0.991c0.267,0.128,0.642,0.25,1.103,0.25
		c0.764,0,1.14-0.495,1.14-1.582v-0.458h-0.023c-0.199,0.408-0.617,0.636-1.078,0.636c-1.186,0-1.774-1.311-1.774-2.851
		c0-2.036,0.924-3.056,1.909-3.056c0.53,0,0.874,0.319,1.08,0.718h0.023l0.065-0.623H110.296z M108.968,45.757
		c0-0.151-0.021-0.308-0.056-0.427c-0.086-0.316-0.271-0.663-0.655-0.663c-0.608,0-0.896,0.827-0.896,1.932
		c0,1.27,0.38,1.877,0.881,1.877c0.24,0,0.512-0.117,0.657-0.609c0.055-0.154,0.068-0.327,0.068-0.488V45.757z"/>
</g>
<g>
	<rect x="33.852" y="100.516" fill="none" width="82.295" height="28.363"/>
	<path fill="#3C3C3B" d="M46.264,100.736v3.344h1.92v-3.344h1.28v8.084h-1.28v-3.561h-1.92v3.561h-1.28v-8.084H46.264z"/>
	<path fill="#3C3C3B" d="M52.134,100.736v5.326c0,1.311,0.412,1.73,0.918,1.73c0.555,0,0.934-0.415,0.934-1.73v-5.326h1.28v5.109
		c0,2.09-0.823,3.07-2.217,3.07c-1.476,0-2.195-1.001-2.195-3.012v-5.168H52.134z"/>
	<path fill="#3C3C3B" d="M56.66,108.82v-8.084h1.185l1.351,3.45c0.287,0.733,0.691,1.783,0.941,2.562h0.024
		c-0.063-1.037-0.139-2.283-0.139-3.729v-2.284h1.133v8.084h-1.185l-1.365-3.441c-0.298-0.742-0.655-1.717-0.887-2.569h-0.024
		c0.057,0.934,0.098,2.08,0.098,3.751v2.26H56.66z"/>
	<path fill="#3C3C3B" d="M62.576,100.856c0.372-0.1,0.885-0.156,1.436-0.156c0.942,0,1.604,0.227,2.089,0.67
		c0.663,0.587,1.067,1.646,1.067,3.266c0,1.733-0.434,2.822-1.053,3.42c-0.538,0.554-1.326,0.821-2.362,0.821
		c-0.443,0-0.89-0.04-1.177-0.086V100.856z M63.849,107.795c0.106,0.024,0.23,0.024,0.314,0.024c0.875,0,1.68-0.738,1.68-3.201
		c0-1.83-0.519-2.888-1.627-2.888c-0.127,0-0.257,0.01-0.367,0.041V107.795z"/>
	<path fill="#3C3C3B" d="M71.419,105.136h-1.923v2.572h2.18v1.111h-3.46v-8.084h3.318v1.111h-2.038v2.219h1.923V105.136z"/>
	<path fill="#3C3C3B" d="M73.628,101.91h-1.45v-1.174h4.187v1.174h-1.457v6.91h-1.28V101.91z"/>
	<path fill="#3C3C3B" d="M77.239,100.856c0.446-0.106,1.006-0.156,1.542-0.156c0.83,0,1.526,0.145,2.003,0.592
		c0.45,0.426,0.609,0.966,0.609,1.634c0,0.941-0.453,1.669-1.27,2.048v0.023c0.568,0.204,0.863,0.74,1.028,1.697
		c0.17,0.99,0.363,1.85,0.493,2.126h-1.328c-0.106-0.231-0.277-1.024-0.416-1.964c-0.156-1.053-0.455-1.395-1.096-1.395h-0.293
		v3.358h-1.273V100.856z M78.513,104.474h0.333c0.77,0,1.25-0.599,1.25-1.419c0-0.8-0.32-1.331-1.154-1.345
		c-0.161,0-0.326,0.012-0.429,0.048V104.474z"/>
	<path fill="#3C3C3B" d="M83.739,106.712l-0.437,2.107h-1.241l1.798-8.084h1.495l1.672,8.084h-1.251l-0.43-2.107H83.739z
		 M85.212,105.709l-0.338-1.855c-0.096-0.528-0.204-1.274-0.291-1.841h-0.035c-0.089,0.571-0.209,1.342-0.307,1.846l-0.354,1.851
		H85.212z"/>
	<path fill="#3C3C3B" d="M89.259,100.736v8.084h-1.28v-8.084H89.259z"/>
	<path fill="#3C3C3B" d="M90.69,108.82v-8.084h1.185l1.352,3.45c0.286,0.733,0.691,1.783,0.941,2.562h0.024
		c-0.063-1.037-0.139-2.283-0.139-3.729v-2.284h1.133v8.084h-1.185l-1.365-3.441c-0.298-0.742-0.654-1.717-0.887-2.569h-0.023
		c0.057,0.934,0.098,2.08,0.098,3.751v2.26H90.69z"/>
	<path fill="#3C3C3B" d="M99.81,105.136h-1.923v2.572h2.181v1.111h-3.461v-8.084h3.318v1.111h-2.038v2.219h1.923V105.136z"/>
	<path fill="#3C3C3B" d="M101.118,100.856c0.447-0.106,1.007-0.156,1.542-0.156c0.831,0,1.527,0.145,2.003,0.592
		c0.45,0.426,0.61,0.966,0.61,1.634c0,0.941-0.453,1.669-1.271,2.048v0.023c0.569,0.204,0.864,0.74,1.029,1.697
		c0.169,0.99,0.362,1.85,0.493,2.126h-1.328c-0.106-0.231-0.277-1.024-0.417-1.964c-0.156-1.053-0.454-1.395-1.095-1.395h-0.294
		v3.358h-1.273V100.856z M102.392,104.474h0.333c0.771,0,1.251-0.599,1.251-1.419c0-0.8-0.32-1.331-1.154-1.345
		c-0.162,0-0.326,0.012-0.43,0.048V104.474z"/>
	<path fill="#3C3C3B" d="M64.825,122.844c-0.589,0.346-1.184,0.472-1.848,0.472c-1.552,0-2.941-1.158-2.941-3.509
		c0-2.508,1.582-4.768,3.837-4.768c1.789,0,2.687,1.353,2.687,2.991c0,2.161-0.755,3.33-1.872,3.33
		c-0.532,0-0.817-0.346-0.799-0.992h-0.031c-0.342,0.692-0.856,0.992-1.314,0.992c-0.603,0-1.003-0.502-1.003-1.379
		c0-1.427,0.901-2.975,2.519-2.975c0.354,0,0.754,0.089,0.991,0.215l-0.439,2.303c-0.16,0.863-0.043,1.243,0.299,1.243
		c0.521,0,1.053-0.934,1.053-2.549c0-1.58-0.673-2.673-2.197-2.673c-1.625,0-3.127,1.715-3.127,4.265
		c0,1.993,1.017,2.979,2.498,2.979c0.571,0,1.056-0.148,1.523-0.407L64.825,122.844z M64.121,117.702
		c-0.083-0.043-0.185-0.055-0.321-0.055c-0.723,0-1.395,1.09-1.395,2.292c0,0.469,0.165,0.707,0.448,0.707
		c0.425,0,0.841-0.668,0.961-1.299L64.121,117.702z"/>
	<path fill="#3C3C3B" d="M68.914,115.136v3.344h1.92v-3.344h1.28v8.083h-1.28v-3.561h-1.92v3.561h-1.28v-8.083H68.914z"/>
	<path fill="#3C3C3B" d="M78.068,119.076c0,3.037-1.062,4.24-2.492,4.24c-1.61,0-2.413-1.71-2.413-4.152
		c0-2.421,0.917-4.124,2.536-4.124C77.394,115.039,78.068,116.894,78.068,119.076z M74.495,119.177c0,1.758,0.333,3.022,1.146,3.022
		c0.835,0,1.096-1.456,1.096-3.069c0-1.464-0.244-2.975-1.108-2.975C74.828,116.156,74.495,117.486,74.495,119.177z"/>
	<path fill="#3C3C3B" d="M84.031,120.098c-0.047-0.906-0.1-2.007-0.077-2.899h-0.04c-0.157,0.882-0.373,1.864-0.569,2.635
		l-0.834,3.29h-0.878l-0.795-3.197c-0.206-0.822-0.431-1.824-0.569-2.728h-0.034c-0.011,0.913-0.065,1.983-0.111,2.94l-0.143,3.08
		h-1.116l0.536-8.083h1.364l0.779,3.272c0.245,1.044,0.448,1.892,0.606,2.808h0.029c0.139-0.908,0.318-1.755,0.552-2.808
		l0.764-3.272h1.378l0.479,8.083h-1.163L84.031,120.098z"/>
	<path fill="#3C3C3B" d="M89.761,119.536h-1.923v2.572h2.18v1.11h-3.46v-8.083h3.318v1.11h-2.038v2.22h1.923V119.536z"/>
</g>
</svg>
